<svg width="1996" height="914" viewBox="0 0 1996 914" fill="none" xmlns="http://www.w3.org/2000/svg">
<mask id="mask0_134_81" style="mask-type:alpha" maskUnits="userSpaceOnUse" x="1206" y="321" width="762" height="836">
<path d="M1206 629.658L1206 1036.33C1206 1039.59 1208.62 1042.19 1211.81 1042.19L1339.61 1042.19C1342.84 1042.19 1345.42 1039.55 1345.42 1036.33L1345.42 629.658C1345.42 626.403 1342.8 623.798 1339.61 623.798L1211.81 623.798C1208.62 623.798 1206 626.437 1206 629.658Z" fill="#F4F4F4"/>
<path d="M1827.64 730.519C1827.64 731.307 1826.59 731.513 1826.32 730.759C1812.18 690.119 1711.57 598.799 1591.48 598.799L1551.42 598.799L1424.84 598.799L1417.81 598.799C1414.62 598.799 1412 601.403 1412 604.658L1412 1152.03C1412 1154.77 1414.21 1157 1416.93 1157L1546.53 1157C1549.25 1157 1551.45 1154.77 1551.45 1152.03L1551.45 745.254C1551.45 742.033 1554.04 739.394 1557.26 739.394L1823.26 739.394C1825.71 739.394 1827.68 741.382 1827.68 743.849L1827.68 1151C1827.68 1154.33 1830.36 1157 1833.62 1157L1961.15 1157C1964.45 1157 1967.1 1154.29 1967.1 1151L1967.1 977.957C1967.1 858.436 1878.89 757.247 1837.84 740.902C1837.06 740.593 1837.26 739.428 1838.11 739.428L1960.54 739.428C1964.18 739.428 1967.13 736.447 1967.13 732.781L1967.13 326.825C1967.13 323.604 1964.55 321 1961.36 321L1833.49 321C1830.29 321 1827.71 323.604 1827.71 326.825L1827.64 730.519Z" fill="#F4F4F4"/>
</mask>
<g mask="url(#mask0_134_81)">
<path d="M-81 914H2054V0H-81V914Z" fill="white"/>
</g>
<path d="M1706 857.665L1706 793L1770.67 793" stroke="white" stroke-width="5" stroke-linecap="round"/>
<path d="M1706 793.001L1771 857.998" stroke="white" stroke-width="5" stroke-linecap="round"/>
</svg>
