<svg width="24" height="24" viewBox="0 0 24 24" fill="none" xmlns="http://www.w3.org/2000/svg">
<g filter="url(#filter0_d_10_349)">
<path fill-rule="evenodd" clip-rule="evenodd" d="M15.6363 9.79465C15.9223 10.0943 15.9112 10.569 15.6116 10.855L11.4866 14.7925C11.1968 15.0692 10.7407 15.0692 10.4509 14.7925L8.38839 12.8238C8.08877 12.5378 8.07773 12.063 8.36374 11.7634C8.64974 11.4638 9.12449 11.4527 9.42411 11.7387L10.9687 13.2132L14.5759 9.76998C14.8755 9.48398 15.3503 9.49502 15.6363 9.79465Z" fill="url(#paint0_linear_10_349)"/>
</g>
<g filter="url(#filter1_d_10_349)">
<path fill-rule="evenodd" clip-rule="evenodd" d="M12 6C8.68629 6 6 8.68629 6 12C6 15.3137 8.68629 18 12 18C15.3137 18 18 15.3137 18 12C18 8.68629 15.3137 6 12 6ZM4.5 12C4.5 7.85786 7.85786 4.5 12 4.5C16.1421 4.5 19.5 7.85786 19.5 12C19.5 16.1421 16.1421 19.5 12 19.5C7.85786 19.5 4.5 16.1421 4.5 12Z" fill="url(#paint1_linear_10_349)"/>
</g>
<defs>
<filter id="filter0_d_10_349" x="4.15625" y="5.5625" width="15.6875" height="13.4375" filterUnits="userSpaceOnUse" color-interpolation-filters="sRGB">
<feFlood flood-opacity="0" result="BackgroundImageFix"/>
<feColorMatrix in="SourceAlpha" type="matrix" values="0 0 0 0 0 0 0 0 0 0 0 0 0 0 0 0 0 0 127 0" result="hardAlpha"/>
<feOffset/>
<feGaussianBlur stdDeviation="2"/>
<feComposite in2="hardAlpha" operator="out"/>
<feColorMatrix type="matrix" values="0 0 0 0 0.317647 0 0 0 0 0.847059 0 0 0 0 0.372549 0 0 0 0.5 0"/>
<feBlend mode="normal" in2="BackgroundImageFix" result="effect1_dropShadow_10_349"/>
<feBlend mode="normal" in="SourceGraphic" in2="effect1_dropShadow_10_349" result="shape"/>
</filter>
<filter id="filter1_d_10_349" x="0.5" y="0.5" width="23" height="23" filterUnits="userSpaceOnUse" color-interpolation-filters="sRGB">
<feFlood flood-opacity="0" result="BackgroundImageFix"/>
<feColorMatrix in="SourceAlpha" type="matrix" values="0 0 0 0 0 0 0 0 0 0 0 0 0 0 0 0 0 0 127 0" result="hardAlpha"/>
<feOffset/>
<feGaussianBlur stdDeviation="2"/>
<feComposite in2="hardAlpha" operator="out"/>
<feColorMatrix type="matrix" values="0 0 0 0 0.317647 0 0 0 0 0.847059 0 0 0 0 0.372549 0 0 0 0.5 0"/>
<feBlend mode="normal" in2="BackgroundImageFix" result="effect1_dropShadow_10_349"/>
<feBlend mode="normal" in="SourceGraphic" in2="effect1_dropShadow_10_349" result="shape"/>
</filter>
<linearGradient id="paint0_linear_10_349" x1="12" y1="9.5625" x2="12" y2="15" gradientUnits="userSpaceOnUse">
<stop stop-color="#6EF07B"/>
<stop offset="1" stop-color="#49D157"/>
</linearGradient>
<linearGradient id="paint1_linear_10_349" x1="12" y1="4.5" x2="12" y2="19.5" gradientUnits="userSpaceOnUse">
<stop stop-color="#6EF07B"/>
<stop offset="1" stop-color="#49D157"/>
</linearGradient>
</defs>
</svg>
