<svg width="517" height="105" viewBox="0 0 517 105" fill="none" xmlns="http://www.w3.org/2000/svg">
<path d="M274.317 73.5107C274.317 65.5012 280.878 58.9479 288.88 58.9479H332.091V71.3889H288.88C287.721 71.3889 286.852 72.3519 286.758 73.5107V90.1953C286.852 91.3541 287.721 92.3171 288.88 92.3171H332.091V104.758H288.88C280.871 104.758 274.317 98.197 274.317 90.1953V73.5107Z" fill="white"/>
<path d="M393.737 92.3171V104.758H350.526C342.516 104.758 335.963 98.1971 335.963 90.1953V58.9401H348.404V90.1953C348.404 91.3541 349.367 92.3171 350.526 92.3171H393.737Z" fill="white"/>
<path d="M455.368 58.9479V90.2032C455.368 98.2127 448.807 104.766 440.806 104.766H412.158C404.148 104.766 397.595 98.2049 397.595 90.2032V58.9479H410.036V90.2032C410.036 91.3619 410.999 92.3249 412.158 92.3249H440.806C441.964 92.3249 442.927 91.3619 442.927 90.2032V58.9479H455.368Z" fill="white"/>
<path d="M514.393 81.9039C516.029 84.3154 517 87.2123 517 90.1953C517 98.2049 510.439 104.758 502.437 104.758H459.227V58.9401H502.437C510.447 58.9401 517 65.5012 517 73.5029C517 76.5016 516.037 79.3907 514.393 81.9039ZM502.437 75.6325C503.596 75.6325 504.559 74.6695 504.559 73.5107C504.559 72.352 503.596 71.3889 502.437 71.3889H471.668V75.6325H502.437ZM502.437 92.3171C503.596 92.3171 504.559 91.3541 504.559 90.1953C504.559 89.0366 503.596 88.0735 502.437 88.0735H471.668V92.3171H502.437Z" fill="white"/>
<path d="M14.6253 71.4423C13.4616 71.4423 12.4944 72.4095 12.4944 73.5732C12.4944 74.737 13.4616 75.7041 14.6253 75.7041H58.0215V88.1985H14.6253C13.4616 88.1985 12.4944 89.1657 12.4944 90.3294V104.955H0V90.3294C0 87.3257 0.96717 84.4242 2.61841 81.9002C0.975033 79.4784 0 76.569 0 73.5653C0 65.5214 6.58925 58.9401 14.6253 58.9401H58.0215V71.4345H14.6253V71.4423Z" fill="#8EFE1C"/>
<path d="M74.2975 58.9479V104.766H61.8975V58.9479H74.2975Z" fill="#8EFE1C"/>
<path d="M136.201 75.7041V90.3294C136.201 98.3733 129.714 104.955 121.67 104.955H92.805C84.7611 104.955 78.274 98.3654 78.1797 90.3294V73.5732C78.274 65.5293 84.769 58.9479 92.805 58.9479H136.201V71.4423H92.805C91.6413 71.4423 90.7685 72.4094 90.7685 73.5732V90.3294C90.7685 91.4931 91.6413 92.4602 92.805 92.4602H121.67C122.834 92.4602 123.707 91.4931 123.707 90.3294V88.1985H107.242V75.7041H136.201Z" fill="#8EFE1C"/>
<path d="M185.606 58.9479H198.101V104.963H185.606V88.2063H152.566V104.963H140.071V58.9479H152.566V75.7041H185.598V58.9479H185.606Z" fill="#8EFE1C"/>
<path d="M259.998 71.4423H237.235V104.963H224.638V71.4423H201.969V58.9479H259.998V71.4423Z" fill="#8EFE1C"/>
<path d="M58.0294 14.7275V46.0146H45.5271V14.6253C45.5271 13.4616 44.4656 12.4944 43.3962 12.4944H35.258V46.0146H22.7636V12.4944H12.4944V46.0146H0V0H43.3962C51.4401 0.00786306 58.0294 6.58924 58.0294 14.7275Z" fill="white"/>
<path d="M76.5247 0.00744629H120.023V12.5019H76.5247C75.361 12.5019 74.4882 13.469 74.4882 14.6327C74.4882 15.7965 75.361 16.7636 76.5247 16.7636H120.023V29.258H76.5247C75.361 29.258 74.4882 30.2252 74.4882 31.3889C74.4882 32.5527 75.361 33.5198 76.5247 33.5198H120.023V46.0142H76.5247C68.4808 46.0142 61.9938 39.425 61.8994 31.3889C61.8994 28.3852 62.8666 25.4838 64.6122 23.0619C62.8666 20.5458 61.8994 17.6364 61.8994 14.6327C62.0016 6.58883 68.4887 0.00744629 76.5247 0.00744629Z" fill="white"/>
<path d="M123.897 14.6327C123.897 6.58883 130.487 0.00744629 138.523 0.00744629H181.919V12.5019H138.523C137.359 12.5019 136.486 13.469 136.392 14.6327V31.3889C136.486 32.5527 137.359 33.5198 138.523 33.5198H181.919V46.0142H138.523C130.479 46.0142 123.897 39.425 123.897 31.3889V14.6327Z" fill="white"/>
<path d="M231.323 0.00744629H243.817V46.0221H231.323V29.2659H198.29V46.0221H185.796V0.00744629H198.29V16.7636H231.323V0.00744629Z" fill="white"/>
<path d="M291.091 0.00744629C299.229 0.00744629 305.716 6.49448 305.716 14.6327V46.0221H293.316V29.2659H260.189V46.0221H247.694V14.6327C247.694 6.49448 254.284 0.00744629 262.32 0.00744629H291.091ZM293.324 16.7636V14.6327C293.229 13.3747 292.262 12.5019 291.098 12.5019H262.327C261.164 12.5019 260.197 13.3747 260.197 14.6327V16.7636H293.324Z" fill="white"/>
</svg>
