<svg width="428" height="262" viewBox="0 0 428 262" fill="none" xmlns="http://www.w3.org/2000/svg">
<path d="M327.193 146.667C326.541 146.667 326.371 145.796 326.994 145.571C360.597 133.883 436.103 50.692 436.103 -48.5984V-81.7232V-186.38V-192.196C436.103 -194.837 433.95 -197 431.258 -197H-21.3263C-23.593 -197 -25.4346 -195.174 -25.4346 -192.926V-85.769C-25.4346 -83.5213 -23.593 -81.6951 -21.3263 -81.6951H315.01C317.673 -81.6951 319.855 -79.5599 319.855 -76.8908V143.043C319.855 145.066 318.211 146.695 316.171 146.695H-20.4764C-23.2246 146.695 -25.4346 148.915 -25.4346 151.612V257.055C-25.4346 259.78 -23.1963 261.972 -20.4764 261.972H122.603C221.427 261.972 305.093 189.035 318.608 155.096C318.863 154.45 319.826 154.618 319.826 155.32V256.549C319.826 259.556 322.291 262 325.323 262H660.979C663.642 262 665.795 259.865 665.795 257.224V151.499C665.795 148.858 663.642 146.723 660.979 146.723L327.193 146.667Z" fill="#E2FF4B"/>
</svg>
