<svg width="2029" height="1230" viewBox="0 0 2029 1230" fill="none" xmlns="http://www.w3.org/2000/svg">
<g clip-path="url(#clip0_134_513)">
<path d="M580.607 333.711L580.607 55.6122C580.607 53.3861 578.818 51.6052 576.634 51.6052L489.241 51.6052C487.033 51.6052 485.267 53.4095 485.267 55.6122L485.267 333.711C485.267 335.937 487.056 337.718 489.24 337.718L576.634 337.718C578.818 337.718 580.607 335.914 580.607 333.711Z" fill="white"/>
<path d="M155.329 247.643C155.329 247.104 156.049 246.963 156.235 247.479C165.901 275.27 234.705 337.718 316.824 337.718L344.22 337.718L430.777 337.718L435.587 337.718C437.771 337.718 439.561 335.937 439.561 333.711L439.561 -40.6023C439.561 -42.4769 438.05 -44 436.191 -44L347.566 -44C345.707 -44 344.197 -42.4769 344.197 -40.6023L344.197 237.567C344.197 239.769 342.431 241.574 340.223 241.574L158.326 241.574C156.653 241.574 155.305 240.214 155.305 238.527L155.305 -39.8993C155.305 -42.1723 153.47 -44 151.239 -44L64.0314 -44C61.7774 -44 59.9649 -42.1488 59.9649 -39.8993L59.9649 78.4355C59.9649 160.169 120.288 229.365 148.358 240.542C148.892 240.753 148.753 241.55 148.172 241.55L64.4496 241.55C61.9633 241.55 59.9417 243.589 59.9417 246.096L59.9416 523.702C59.9416 525.905 61.7077 527.686 63.8919 527.686L151.332 527.686C153.516 527.686 155.282 525.905 155.282 523.702L155.329 247.643Z" fill="white"/>
<path d="M1161 711.893L1161 1175.4C1161 1179.11 1163.98 1182.07 1167.62 1182.07L1313.28 1182.07C1316.96 1182.07 1319.9 1179.07 1319.9 1175.4L1319.9 711.893C1319.9 708.183 1316.92 705.215 1313.28 705.215L1167.62 705.215C1163.98 705.215 1161 708.222 1161 711.893Z" fill="white"/>
<path d="M1869.8 855.343C1869.8 856.241 1868.6 856.475 1868.29 855.616C1852.18 809.297 1737.51 705.216 1600.64 705.216L1554.98 705.216L1410.72 705.216L1402.7 705.216C1399.06 705.216 1396.08 708.185 1396.08 711.895L1396.08 1335.76C1396.08 1338.88 1398.6 1341.42 1401.7 1341.42L1549.41 1341.42C1552.5 1341.42 1555.02 1338.88 1555.02 1335.76L1555.02 872.136C1555.02 868.465 1557.96 865.458 1561.64 865.458L1864.81 865.458C1867.6 865.458 1869.84 867.723 1869.84 870.535L1869.84 1334.58C1869.84 1338.37 1872.9 1341.42 1876.62 1341.42L2021.97 1341.42C2025.72 1341.42 2028.75 1338.33 2028.75 1334.58L2028.75 1137.36C2028.75 1001.13 1928.21 885.806 1881.42 867.176C1880.53 866.825 1880.76 865.497 1881.73 865.497L2021.27 865.497C2025.41 865.497 2028.78 862.099 2028.78 857.92L2028.78 395.239C2028.78 391.568 2025.84 388.6 2022.2 388.6L1876.47 388.6C1872.83 388.6 1869.88 391.568 1869.88 395.239L1869.8 855.343Z" fill="white"/>
<rect x="250.633" y="705.202" width="163.367" height="163.367" fill="white"/>
<rect x="168.469" y="868.568" width="82.1635" height="82.1635" fill="white"/>
<path d="M1648 1H2028.51V85.9185H1658C1652.48 85.9185 1648 81.4414 1648 75.9185V1Z" fill="white"/>
</g>
<defs>
<clipPath id="clip0_134_513">
<rect width="2029" height="1229" fill="white" transform="translate(0 0.986816)"/>
</clipPath>
</defs>
</svg>
