<svg width="1920" height="1072" viewBox="0 0 1920 1072" fill="none" xmlns="http://www.w3.org/2000/svg">
<g clip-path="url(#clip0_126:433)">
<rect x="935.438" y="-0.720703" width="238.167" height="238.167" fill="#E2FF4B"/>
<path d="M466.117 280.016C466.117 280.707 465.194 280.887 464.956 280.226C452.572 244.625 364.431 164.625 259.232 164.625L224.136 164.625L113.252 164.625L107.09 164.625C104.292 164.625 102 166.907 102 169.758L102 649.274C102 651.675 103.935 653.626 106.316 653.626L219.85 653.626C222.231 653.626 224.166 651.675 224.166 649.274L224.166 292.924C224.166 290.103 226.428 287.791 229.256 287.791L462.277 287.791C464.42 287.791 466.146 289.532 466.146 291.694L466.146 648.373C466.146 651.285 468.498 653.626 471.356 653.626L583.073 653.626C585.961 653.626 588.283 651.255 588.283 648.373L588.283 496.78C588.283 392.075 511.006 303.431 475.047 289.112C474.362 288.842 474.541 287.821 475.285 287.821L582.538 287.821C585.723 287.821 588.312 285.21 588.312 281.998L588.312 -73.6315C588.312 -76.4532 586.05 -78.7346 583.252 -78.7346L471.237 -78.7346C468.438 -78.7346 466.176 -76.4532 466.176 -73.6314L466.117 280.016Z" fill="#F7F7F7"/>
<path d="M1134.15 936.804C1133.45 936.804 1133.27 935.881 1133.94 935.643C1169.54 923.26 1249.54 835.118 1249.54 729.92V694.824V583.94V577.778C1249.54 574.98 1247.25 572.688 1244.4 572.688H764.888C762.486 572.688 760.535 574.622 760.535 577.004V690.537C760.535 692.919 762.486 694.854 764.888 694.854H1121.24C1124.06 694.854 1126.37 697.116 1126.37 699.944V932.964C1126.37 935.107 1124.63 936.834 1122.47 936.834H765.788C762.877 936.834 760.535 939.186 760.535 942.043V1053.76C760.535 1056.65 762.907 1058.97 765.788 1058.97H917.382C1022.09 1058.97 1110.73 981.694 1125.05 945.734C1125.32 945.05 1126.34 945.228 1126.34 945.973V1053.23C1126.34 1056.41 1128.95 1059 1132.16 1059H1487.79C1490.61 1059 1492.9 1056.74 1492.9 1053.94V941.924C1492.9 939.126 1490.61 936.864 1487.79 936.864L1134.15 936.804Z" fill="#F7F7F7"/>
<rect x="1216.23" y="335.084" width="55.8186" height="55.8186" fill="#E2FF4B"/>
<rect x="1368.89" y="916.084" width="552" height="194.916" fill="black"/>
<rect x="1368.89" y="-139" width="552" height="1250" fill="black"/>
<path d="M1560.35 1169.34L1978.22 1169.34C1981.56 1169.34 1984.24 1166.65 1984.24 1163.37L1984.24 1032.05C1984.24 1028.74 1981.53 1026.08 1978.22 1026.08L1560.35 1026.08C1557.01 1026.08 1554.33 1028.77 1554.33 1032.05L1554.33 1163.37C1554.33 1166.65 1557.04 1169.34 1560.35 1169.34Z" fill="#E2FF4B"/>
<path d="M1689.68 530.326C1690.49 530.326 1690.7 531.408 1689.92 531.688C1648.16 546.212 1554.33 649.595 1554.33 772.985L1554.33 814.149L1554.33 944.207L1554.33 951.435C1554.33 954.717 1557.01 957.405 1560.35 957.405L2122.79 957.405C2125.6 957.405 2127.89 955.136 2127.89 952.342L2127.89 819.177C2127.89 816.384 2125.6 814.114 2122.79 814.114L1704.82 814.114C1701.51 814.114 1698.8 811.461 1698.8 808.144L1698.8 534.83C1698.8 532.316 1700.84 530.291 1703.37 530.291L2121.73 530.291C2125.14 530.291 2127.89 527.533 2127.89 524.181L2127.89 393.145C2127.89 389.758 2125.11 387.035 2121.73 387.035L1943.92 387.035C1821.11 387.035 1717.14 477.674 1700.34 519.851C1700.03 520.654 1698.83 520.445 1698.83 519.572L1698.83 393.774C1698.83 390.038 1695.77 387 1692 387L1274.88 387C1271.57 387 1268.89 389.654 1268.89 392.936L1268.89 524.32C1268.89 527.602 1271.57 530.256 1274.88 530.256L1689.68 530.326Z" fill="#E2FF4B"/>
</g>
<defs>
<clipPath id="clip0_126:433">
<rect width="1920" height="1072" fill="white"/>
</clipPath>
</defs>
</svg>
